<svg xmlns="http://www.w3.org/2000/svg" viewBox="0 0 461.94 231.97"><defs><style>.cls-1{fill:#fff;}.cls-2{fill:#fff;}</style></defs><title>keyko_logo_whitetype</title><g id="Layer_2" data-name="Layer 2"><g id="Layer_1-2" data-name="Layer 1"><path class="cls-1" d="M231.48,145.88a36.14,36.14,0,0,0-52.16-.26,36.11,36.11,0,0,0-10.79,26.24A36.79,36.79,0,0,0,226.7,202a36.33,36.33,0,0,0,13.44-18h-9.57a24.11,24.11,0,0,1-9.88,12.15,28,28,0,0,1-15.45,4.53,26.67,26.67,0,0,1-18.68-7.63q-8.2-7.62-8.73-18h64.38q0-.51.06-1.29c0-.52.07-1,.07-1.29A37,37,0,0,0,231.48,145.88ZM177.83,167a28.52,28.52,0,0,1,9.38-17.32,27.55,27.55,0,0,1,36.38,0A29.26,29.26,0,0,1,233,167Z"/><path class="cls-1" d="M305.68,136.44,281.63,192.8l-22.49-56.36h-9.56l27.53,68.38L264.83,232h9.44l41-95.53Z"/><path class="cls-1" d="M451,145.62a35.64,35.64,0,0,0-26.11-11,34.91,34.91,0,0,0-26.11,11.12A36.8,36.8,0,0,0,388,172.25q0,14.87,10.92,25.72a37,37,0,0,0,63-26.24A35.64,35.64,0,0,0,451,145.62Zm-6,46.47a26.06,26.06,0,0,1-20,8.6,26.44,26.44,0,0,1-19.78-8.47,28,28,0,0,1-8.14-20.1,29.33,29.33,0,0,1,8.08-20.62A26,26,0,0,1,425,142.77a26.49,26.49,0,0,1,19.71,8.47,27.92,27.92,0,0,1,8.21,20.1A29.48,29.48,0,0,1,444.94,192.09Z"/><path class="cls-1" d="M123,170l38.67-33.56H148.36l-32.62,28.39v-44a73.06,73.06,0,0,1-9,7v79h9V175.13l35.44,31.67h12.74Z"/><path class="cls-1" d="M343.39,170l38.66-33.56H368.76l-32.61,28.39V109.31h-9V206.8h9V175.13l35.42,31.67h12.74Z"/><path class="cls-1" d="M37.46,125.46h57l-1.44.67c-.52.23-1,.46-1.56.67l-1.47.61-.13,0-1.4.52-.27.09-1.09.39-.61.2-1.46.45c-.55.17-1.1.33-1.66.48L81.7,130l-1.69.38c-.57.13-1.13.24-1.7.35a66.93,66.93,0,0,1-7,.94c-1.77.14-3.56.22-5.37.22s-3.61-.08-5.38-.22a66.39,66.39,0,0,1-7-.94c-.57-.11-1.14-.22-1.71-.35L50.22,130l-1.56-.41c-.12,0-.23-.07-.36-.09-.43-.13-.86-.24-1.28-.38l-.36-.11c-.36-.1-.73-.22-1.1-.34s-.71-.22-1.06-.36c-1.9-.65-3.77-1.39-5.59-2.21h0Z"/><path class="cls-1" d="M5.37,92.05H126.54c-.11.3-.24.59-.37.88-.3.67-.62,1.33-.94,2,0,0,0,0,0,.07-.33.66-.67,1.32-1,2s-.71,1.31-1.08,2c0,0,0,0,0,0-.36.6-.72,1.2-1.09,1.8l-.06.09H10l-.06-.09a65,65,0,0,1-4.17-7.82C5.61,92.64,5.49,92.35,5.37,92.05Z"/><path class="cls-1" d="M1.14,78.23H130.77c0,.12,0,.23-.05.34-.09.46-.19.93-.29,1.39-.07.3-.13.59-.21.89-.18.82-.38,1.64-.61,2.46-.1.37-.2.73-.31,1.1s-.21.71-.33,1.07H2.94c-.11-.36-.22-.71-.32-1.07s-.22-.73-.31-1.1c-.23-.82-.44-1.64-.62-2.46-.08-.3-.13-.59-.2-.89-.11-.46-.2-.93-.29-1.39Z"/><path class="cls-1" d="M0,67.76H131.89v.29c0,.41,0,.81-.06,1.21s0,.52,0,.77c0,.47,0,.94-.09,1.4-.1,1.09-.21,2.17-.36,3.25a2.19,2.19,0,0,1,0,.27H.61a2.19,2.19,0,0,1,0-.27C.43,73.6.31,72.52.23,71.43c0-.2,0-.39-.05-.59s0-.54-.06-.81,0-.51,0-.77,0-.8-.06-1.21Z"/><path class="cls-1" d="M131.92,66H0a66,66,0,0,1,131.92,0Z"/><path class="cls-2" d="M94.46,125.46l-1.44.67c-.52.23-1,.46-1.56.67l-1.47.61-.13,0-1.4.52-.27.09-1.09.39-.61.2-1.46.45c-.55.17-1.1.33-1.66.48L81.7,130l-1.69.38c-.57.13-1.13.24-1.7.35a66.93,66.93,0,0,1-7,.94c-1.77.14-3.56.22-5.37.22s-3.61-.08-5.38-.22a66.39,66.39,0,0,1-7-.94c-.57-.11-1.14-.22-1.71-.35L50.22,130l-1.56-.41c-.12,0-.23-.07-.36-.09-.43-.13-.86-.24-1.28-.38l-.36-.11c-.36-.1-.73-.22-1.1-.34s-.71-.22-1.06-.36c-1.9-.65-3.77-1.39-5.59-2.21h0l-1.44-.67Z"/><path class="cls-2" d="M115.7,109.27l0,0c-.66.77-1.37,1.53-2.07,2.27-.34.36-.68.71-1,1.06-.72.72-1.46,1.44-2.22,2.13l-1.13,1c-.39.34-.77.67-1.17,1a1.59,1.59,0,0,1-.24.2c-.31.26-.62.52-.94.77H25.06l-.95-.77-.24-.2c-.39-.32-.78-.65-1.16-1s-.76-.65-1.13-1c-.76-.69-1.5-1.41-2.23-2.13-.35-.35-.7-.7-1-1.06-.71-.75-1.41-1.51-2.09-2.29Z"/><path class="cls-2" d="M126.54,92.05c-.11.3-.24.59-.37.88-.3.67-.62,1.33-.94,2,0,0,0,0,0,.07-.33.66-.67,1.32-1,2s-.71,1.31-1.08,2c0,0,0,0,0,0-.36.6-.72,1.2-1.09,1.8l-.06.09H10l-.06-.09a65,65,0,0,1-4.17-7.82c-.14-.29-.26-.58-.38-.88Z"/><path class="cls-2" d="M130.77,78.23c0,.12,0,.23-.05.34-.09.46-.19.93-.29,1.39-.07.3-.13.59-.21.89-.18.82-.38,1.64-.61,2.46-.1.37-.2.73-.31,1.1s-.21.71-.33,1.07H2.94c-.11-.36-.22-.71-.32-1.07s-.22-.73-.31-1.1c-.23-.82-.44-1.64-.62-2.46-.08-.3-.13-.59-.2-.89-.11-.46-.2-.93-.29-1.39l-.06-.34Z"/><path class="cls-2" d="M131.89,67.76v.29c0,.41,0,.81-.06,1.21s0,.52,0,.77c0,.47,0,.94-.09,1.4-.1,1.09-.21,2.17-.36,3.25a2.19,2.19,0,0,1,0,.27H.61a2.19,2.19,0,0,1,0-.27C.43,73.6.31,72.52.23,71.43c0-.2,0-.39-.05-.59s0-.54-.06-.81,0-.51,0-.77,0-.8-.06-1.21v-.29Z"/><path class="cls-2" d="M131.92,66H0a66,66,0,0,1,131.92,0Z"/></g></g></svg>